<svg xmlns="http://www.w3.org/2000/svg" width="169.52mm" height="169.5mm" viewBox="0 0 480.54 480.48"><g id="background"><path d="M409.05,71.09l0,0A238.2,238.2,0,0,0,239,0C107,0,0,107,0,239A238.19,238.19,0,0,0,71.49,409.39l0,0a238.2,238.2,0,0,0,170.06,71.12c132,0,239-107,239-239A238.19,238.19,0,0,0,409.05,71.09Z" fill="#77b3d4"/></g><g id="calendar"><rect x="84.98" y="84.44" width="312.11" height="312.11" rx="36.82" fill="#fff"/><path d="M397.08,172.27V121a36.82,36.82,0,0,0-36.82-36.82H121.8A36.81,36.81,0,0,0,85,121v51.26Z" fill="#c75c5c"/><rect x="84.98" y="171.01" width="312.11" height="15.33" fill="#d3d2d2"/><path d="M153.81,142h0a15,15,0,0,1-15-15v-51a15,15,0,0,1,15-15h0a15,15,0,0,1,14.95,15v51A15,15,0,0,1,153.81,142Zm190.35-15v-51a15,15,0,0,0-15-15h0a15,15,0,0,0-14.95,15v51a15,15,0,0,0,14.95,15h0A15,15,0,0,0,344.16,127.08Z" fill="#e0e0d1"/><path d="M162.93,250.7h-41.2V209.49h41.2Zm65.3-41.21H187V250.7h41.21Zm65.29,0H252.31V250.7h41.21Zm65.29,0H317.6V250.7h41.21ZM162.93,269.91h-41.2v41.21h41.2Zm65.3,0H187v41.21h41.21Zm65.29,0H252.31v41.21h41.21Zm65.29,0H317.6v41.21h41.21ZM162.93,330.33h-41.2v41.21h41.2Zm65.3,0H187v41.21h41.21Zm65.29,0H252.31v41.21h41.21Zm65.29,0H317.6v41.21h41.21Z" fill="#a3a3a0"/></g></svg>