<svg xmlns="http://www.w3.org/2000/svg" width="169.52mm" height="169.5mm" viewBox="0 0 480.54 480.48"><g id="background"><path d="M409.05,71.09l0,0A238.2,238.2,0,0,0,239,0C107,0,0,107,0,239A238.19,238.19,0,0,0,71.49,409.39l0,0a238.2,238.2,0,0,0,170.06,71.12c132,0,239-107,239-239A238.19,238.19,0,0,0,409.05,71.09Z" fill="#29abd3"/></g><g id="mail"><path d="M368.46,356.33H112.08A55.77,55.77,0,0,1,56.3,300.56V179.92a55.77,55.77,0,0,1,55.78-55.77H368.46a55.77,55.77,0,0,1,55.77,55.77V300.56A55.77,55.77,0,0,1,368.46,356.33Zm-300-211.14s129.84,95.05,171.83,95.05S412.1,145.19,412.1,145.19" fill="none" stroke="#fff" stroke-miterlimit="10" stroke-width="30"/></g></svg>