<svg xmlns="http://www.w3.org/2000/svg" width="169.52mm" height="169.5mm" viewBox="0 0 480.54 480.48"><g id="background"><path d="M409.05,71.09l0,0A238.2,238.2,0,0,0,239,0C107,0,0,107,0,239A238.19,238.19,0,0,0,71.49,409.39l0,0a238.2,238.2,0,0,0,170.06,71.12c132,0,239-107,239-239A238.19,238.19,0,0,0,409.05,71.09Z" fill="#afafaf"/></g><g id="headphone"><path d="M357.85,318V250.19a31,31,0,0,1,30.88-30.87h0a31,31,0,0,1,30.87,30.87V318a31,31,0,0,1-30.87,30.87h0A31,31,0,0,1,357.85,318Zm-232.51-1.33V251.52a32.29,32.29,0,0,0-32.2-32.2h0a32.29,32.29,0,0,0-32.2,32.2v65.16a32.29,32.29,0,0,0,32.2,32.2h0A32.29,32.29,0,0,0,125.34,316.68Z" fill="#ffb600" fill-rule="evenodd"/><path d="M119.31,365.17h0A32.29,32.29,0,0,1,87.11,333V235.23a32.29,32.29,0,0,1,32.2-32.2h0a32.3,32.3,0,0,1,32.21,32.2V333A32.3,32.3,0,0,1,119.31,365.17Zm244.32,0h0a31,31,0,0,0,30.88-30.87V233.9A31,31,0,0,0,363.63,203h0a31,31,0,0,0-30.87,30.87V334.3A31,31,0,0,0,363.63,365.17Z" fill="#312f38" fill-rule="evenodd"/><path d="M239.22,55.84c-83.59,0-143.88,67.76-143.88,151.33v54.05a10.81,10.81,0,0,0,21.62,0V207.17c0-71.63,50.61-129.71,122.26-129.71s122.26,58.08,122.26,129.71v54.05a10.81,10.81,0,0,0,21.62,0V207.17C383.1,123.6,322.81,55.84,239.22,55.84Z" fill="#312f38"/></g><g id="melody"><rect x="314.1" y="248.69" width="10.91" height="70.83" rx="5.46" fill="#5353c9"/><rect x="296.98" y="228.83" width="10.91" height="110.55" rx="5.46" fill="#2d2da5"/><rect x="279.85" y="246.9" width="10.91" height="78.81" rx="5.46" fill="#5353c9"/><rect x="262.72" y="256.87" width="10.91" height="58.87" rx="5.46" fill="#c65555"/><rect x="245.59" y="265.99" width="10.91" height="40.63" rx="5.46" fill="#2d2da5"/><rect x="228.46" y="242.71" width="10.91" height="82.79" rx="5.46" fill="#5353c9"/><rect x="211.21" y="234.09" width="10.91" height="98.86" rx="5.46" fill="#a84040"/><rect x="194.21" y="255.11" width="10.91" height="62.38" rx="5.46" fill="#3131aa"/><rect x="177.08" y="270.62" width="10.91" height="26.96" rx="5.46" fill="#b24040"/><rect x="159.95" y="257.87" width="10.91" height="52.47" rx="5.46" fill="#4b4bb2"/></g></svg>