<svg id="heading" xmlns="http://www.w3.org/2000/svg" viewBox="0 0 1331.09 129.48">
  <g id="Modern_Lifystyle_Theme" data-name="Modern Lifystyle Theme">
    <path id="m" d="M12.56,99a15.39,15.39,0,0,1-6.9-1.55A5,5,0,0,1,2.5,92.8v-78Q2.5,9.21,5.66,7a11.67,11.67,0,0,1,6.9-2.26,28.15,28.15,0,0,1,6.13.58A10,10,0,0,1,23.4,8a30,30,0,0,1,4.77,6.78L41.46,38,54.75,14.76A34.14,34.14,0,0,1,59.58,8a9.63,9.63,0,0,1,4.65-2.71,28.05,28.05,0,0,1,6.12-.58,11.57,11.57,0,0,1,7,2.26c2.06,1.51,3.1,4.11,3.1,7.81v78a5,5,0,0,1-3.16,4.64,16.16,16.16,0,0,1-13.81,0,5,5,0,0,1-3.16-4.64V44.43L47.91,65.58a7.24,7.24,0,0,1-3.1,2.9,8.08,8.08,0,0,1-7,.07,6.28,6.28,0,0,1-2.9-3L22.62,43.14V92.8a5,5,0,0,1-3.16,4.64A15.32,15.32,0,0,1,12.56,99Z" fill="#191331" stroke="#fff" stroke-width="5"/>
    <path id="o" d="M121.82,100.28a28.77,28.77,0,0,1-14.51-3.8A30.8,30.8,0,0,1,96.6,86.41a24.34,24.34,0,0,1-4.06-13.48v-9a24.49,24.49,0,0,1,3.94-13.41,29.14,29.14,0,0,1,10.64-9.93,30.7,30.7,0,0,1,29.28-.07,30,30,0,0,1,10.77,9.8,24.12,24.12,0,0,1,4.07,13.61v9a24.11,24.11,0,0,1-4.07,13.36A31.24,31.24,0,0,1,136.4,96.41,28.66,28.66,0,0,1,121.82,100.28Zm0-17.41a8.28,8.28,0,0,0,4.71-1.42A10.78,10.78,0,0,0,130,77.77a9.56,9.56,0,0,0,1.29-4.84v-9A9,9,0,0,0,130,59.26a11,11,0,0,0-3.42-3.61,8.5,8.5,0,0,0-9.41,0,10.45,10.45,0,0,0-3.36,3.61,9.33,9.33,0,0,0-1.22,4.64v9a9.91,9.91,0,0,0,1.22,4.84,10.24,10.24,0,0,0,3.36,3.68A8.23,8.23,0,0,0,121.82,82.87Z" fill="#252947" stroke="#fff" stroke-width="5"/>
    <path id="d" d="M182.45,100.28a18.14,18.14,0,0,1-11.09-3.87,27.9,27.9,0,0,1-8.26-10.12A29.78,29.78,0,0,1,160,72.93v-9a29.83,29.83,0,0,1,3.09-13.61,26.48,26.48,0,0,1,8.26-9.8,19.32,19.32,0,0,1,11.48-3.68,16.86,16.86,0,0,1,10.13,3,20.88,20.88,0,0,1,6.25,6.77V8.56q0-2.7,3-4.38a14.47,14.47,0,0,1,7.22-1.68,13.38,13.38,0,0,1,7,1.68,5,5,0,0,1,2.78,4.38V92.8q0,2.33-2.78,4.26a12,12,0,0,1-7,1.93,10.27,10.27,0,0,1-6.25-1.93q-2.66-1.94-2.65-4.26V90a18.07,18.07,0,0,1-6.9,7.16A20.32,20.32,0,0,1,182.45,100.28Zm6.84-17.41a8.24,8.24,0,0,0,5-1.62,14.79,14.79,0,0,0,3.55-3.61,6.34,6.34,0,0,0,1.35-3V63.9a8.9,8.9,0,0,0-1.48-5.22A10.18,10.18,0,0,0,194,55.39a10,10,0,0,0-4.58-1.16,8.57,8.57,0,0,0-4.77,1.42,10.09,10.09,0,0,0-3.42,3.61A9.34,9.34,0,0,0,180,63.9v9a10.09,10.09,0,0,0,1.23,4.78,10,10,0,0,0,3.35,3.74A8.28,8.28,0,0,0,189.29,82.87Z" fill="#0c5156" stroke="#fff" stroke-width="5"/>
    <path id="e" d="M263,100.28a39.63,39.63,0,0,1-16.9-3.42,27.65,27.65,0,0,1-11.55-9.61,25,25,0,0,1-4.19-14.32V63.52a23.61,23.61,0,0,1,4-13.29A29.54,29.54,0,0,1,245,40.49a32.13,32.13,0,0,1,28.7-.58,26.54,26.54,0,0,1,10.13,8.58,21.68,21.68,0,0,1,3.87,12.83c0,3.87-.63,6.65-1.88,8.32a7.65,7.65,0,0,1-4.77,3.1,29.58,29.58,0,0,1-5.87.58H250.31v.78a9.34,9.34,0,0,0,3.61,7.67c2.4,1.94,5.59,2.9,9.54,2.9a17.14,17.14,0,0,0,6.84-1.22q2.83-1.23,5-2.39a9.12,9.12,0,0,1,4.26-1.16,5.71,5.71,0,0,1,4,1.55,10.1,10.1,0,0,1,2.51,3.61,9.83,9.83,0,0,1,.84,3.61q0,2.46-3,5.16a23.8,23.8,0,0,1-8.32,4.58A38.5,38.5,0,0,1,263,100.28ZM250.31,62.1h16a2.85,2.85,0,0,0,2.07-.65A3.53,3.53,0,0,0,269,59a6.84,6.84,0,0,0-1.35-4.32,8.14,8.14,0,0,0-3.49-2.58,12.35,12.35,0,0,0-4.58-.84,12,12,0,0,0-4.45.84,8,8,0,0,0-3.48,2.58A6.84,6.84,0,0,0,250.31,59Z" fill="#116f51" stroke="#fff" stroke-width="5"/>
    <path id="r" d="M308.1,99a12,12,0,0,1-7-1.93q-2.78-1.94-2.77-4.26V43.65a5,5,0,0,1,2.77-4.38,13.42,13.42,0,0,1,7-1.68,11.37,11.37,0,0,1,6.32,1.68A5,5,0,0,1,317,43.65v4.77a21.37,21.37,0,0,1,3.67-5.48,22.1,22.1,0,0,1,5.42-4.38,12.33,12.33,0,0,1,6.26-1.75h3.74a6.28,6.28,0,0,1,5,2.58,9.27,9.27,0,0,1,2.13,6.07,9.4,9.4,0,0,1-2.13,6.19,6.28,6.28,0,0,1-5,2.58h-3.74a11.15,11.15,0,0,0-6.71,2.39,17.62,17.62,0,0,0-5.29,6.64,23.13,23.13,0,0,0-2.06,10.19V92.8q0,2.33-3,4.26A13,13,0,0,1,308.1,99Z" fill="#26bb83" stroke="#fff" stroke-width="5"/>
    <path id="b" d="M360.73,99a12.23,12.23,0,0,1-7.16-1.93q-2.77-1.94-2.78-4.26V43.65a5,5,0,0,1,2.78-4.38,13.65,13.65,0,0,1,7.16-1.68,11.11,11.11,0,0,1,6.19,1.68,5,5,0,0,1,2.58,4.38v3a17.55,17.55,0,0,1,6.32-6.77,19.22,19.22,0,0,1,11-3,18,18,0,0,1,10.9,3.68,26.62,26.62,0,0,1,8,9.8,30.32,30.32,0,0,1,3,13.61V92.8a5,5,0,0,1-3.16,4.64,15.32,15.32,0,0,1-6.9,1.55,15.16,15.16,0,0,1-6.7-1.55c-2.16-1-3.23-2.58-3.23-4.64V63.9a9.44,9.44,0,0,0-1.22-4.64,10.45,10.45,0,0,0-3.36-3.61,8.28,8.28,0,0,0-4.71-1.42,8,8,0,0,0-4.06,1.16,9.18,9.18,0,0,0-3.29,3.29,9.9,9.9,0,0,0-1.29,5.22V92.8q0,2.33-3,4.26A12.69,12.69,0,0,1,360.73,99Z" fill="#a7d16f" stroke="#fff" stroke-width="5"/>
    <path id="l" d="M458.77,99a12,12,0,0,1-6-1.55A5,5,0,0,1,450,92.8v-82a4.81,4.81,0,0,1,3.17-4.65,17.47,17.47,0,0,1,13.8,0,4.82,4.82,0,0,1,3.16,4.65V81.45h29.41a4.65,4.65,0,0,1,4.39,2.71,12.89,12.89,0,0,1,1.41,6.06,13.06,13.06,0,0,1-1.41,6A4.64,4.64,0,0,1,499.53,99Z" fill="#f3b85b" stroke="#fff" stroke-width="5"/>
    <path id="i" d="M523.91,25.72a10.68,10.68,0,0,1-7.48-2.84,8.54,8.54,0,0,1-3.1-6.45,8.3,8.3,0,0,1,3.1-6.45,11,11,0,0,1,7.48-2.71A10.77,10.77,0,0,1,531.33,10a8.39,8.39,0,0,1,3,6.45,8.63,8.63,0,0,1-3,6.45A10.47,10.47,0,0,1,523.91,25.72Zm0,73.27a12.26,12.26,0,0,1-7.16-1.93Q514,95.13,514,92.8V43.65a5,5,0,0,1,2.77-4.38,13.67,13.67,0,0,1,7.16-1.68A14.14,14.14,0,0,1,531,39.27c2,1.11,3,2.58,3,4.38V92.8q0,2.33-3,4.26A12.67,12.67,0,0,1,523.91,99Z" fill="#e56a41" stroke="#fff" stroke-width="5"/>
    <path id="f" d="M557.06,99a13.44,13.44,0,0,1-7-1.68,5,5,0,0,1-2.84-4.38V28.43a28.21,28.21,0,0,1,3.09-13.35,24.35,24.35,0,0,1,8.26-9.23A20.44,20.44,0,0,1,570,2.5h9.29a6.43,6.43,0,0,1,5.61,2.64,9.75,9.75,0,0,1,1.87,5.75,9.61,9.61,0,0,1-1.87,5.8,6.49,6.49,0,0,1-5.61,2.58h-4.9a8.5,8.5,0,0,0-3.68.77,5.8,5.8,0,0,0-2.51,2.26,7.44,7.44,0,0,0-.91,3.94V37.59h14.58a4,4,0,0,1,3.68,2.26,10.31,10.31,0,0,1,0,9.73,4,4,0,0,1-3.68,2.2H567.25V92.93c0,1.8-1,3.27-3,4.38A14.55,14.55,0,0,1,557.06,99Z" fill="#e31649" stroke="#fff" stroke-width="5"/>
    <path id="e-2" data-name="e" d="M623.62,100.28a39.62,39.62,0,0,1-16.89-3.42,27.52,27.52,0,0,1-11.55-9.61A24.87,24.87,0,0,1,591,72.93V63.52a23.61,23.61,0,0,1,4-13.29,29.59,29.59,0,0,1,10.7-9.74,32.15,32.15,0,0,1,28.71-.58,26.51,26.51,0,0,1,10.12,8.58,21.68,21.68,0,0,1,3.87,12.83c0,3.87-.62,6.65-1.87,8.32a7.7,7.7,0,0,1-4.77,3.1,29.66,29.66,0,0,1-5.87.58H611v.78a9.37,9.37,0,0,0,3.61,7.67q3.61,2.91,9.55,2.9A17.18,17.18,0,0,0,631,83.45q2.84-1.23,5-2.39a9.12,9.12,0,0,1,4.26-1.16,5.68,5.68,0,0,1,4,1.55,10,10,0,0,1,2.52,3.61,9.83,9.83,0,0,1,.84,3.61q0,2.46-3,5.16a23.8,23.8,0,0,1-8.32,4.58A38.52,38.52,0,0,1,623.62,100.28ZM611,62.1h16a2.83,2.83,0,0,0,2.06-.65,3.48,3.48,0,0,0,.65-2.45,6.78,6.78,0,0,0-1.36-4.32,8,8,0,0,0-3.48-2.58,12.38,12.38,0,0,0-4.58-.84,12,12,0,0,0-4.45.84,8,8,0,0,0-3.48,2.58A6.78,6.78,0,0,0,611,59Z" fill="#9a2e5a" stroke="#fff" stroke-width="5"/>
    <path id="s" d="M680.38,100.28a42.87,42.87,0,0,1-12.32-1.68,25.16,25.16,0,0,1-8.9-4.38c-2.19-1.81-3.29-3.74-3.29-5.81a9.83,9.83,0,0,1,.84-3.61A11.35,11.35,0,0,1,659,81.19a4.62,4.62,0,0,1,3.42-1.55,7.05,7.05,0,0,1,4.13,1.49,32.59,32.59,0,0,0,5.1,2.9,19.52,19.52,0,0,0,8.19,1.42q5.16,0,6.58-1.49a4.21,4.21,0,0,0,1.42-2.77,3.79,3.79,0,0,0-2.2-3.42,22.94,22.94,0,0,0-5.61-2.06q-3.42-.84-7.29-1.94a33,33,0,0,1-7.29-3,16.13,16.13,0,0,1-5.61-5.29,15.78,15.78,0,0,1-2.19-8.77,20.86,20.86,0,0,1,2.26-9.35,17.74,17.74,0,0,1,7.54-7.55q5.29-3,14.45-3A46.26,46.26,0,0,1,692.57,38a24.63,24.63,0,0,1,8.13,3.28c2.11,1.42,3.16,3,3.16,4.84a11,11,0,0,1-.84,3.55,12.49,12.49,0,0,1-2.45,4.06,5,5,0,0,1-3.93,1.81,8.84,8.84,0,0,1-3.74-1c-1.38-.64-2.93-1.29-4.65-1.93a17.12,17.12,0,0,0-6.06-1,11.43,11.43,0,0,0-4.19.64,6.18,6.18,0,0,0-2.39,1.55,2.9,2.9,0,0,0-.77,1.94c0,1.2.73,2.13,2.19,2.77a33.58,33.58,0,0,0,5.68,1.81q3.48.84,7.35,1.93a29.32,29.32,0,0,1,7.35,3.23,16,16,0,0,1,7.87,14.9q0,9-6.38,14.44T680.38,100.28Z" fill="#670b59" stroke="#fff" stroke-width="5"/>
    <path id="t" d="M741,99q-12.25,0-18.77-5.22t-6.51-16.58V17q0-2.71,3.22-4.39a14.7,14.7,0,0,1,13.61,0q3.16,1.68,3.16,4.39V37.59H750.3A4,4,0,0,1,754,39.85a10.31,10.31,0,0,1,0,9.73,4,4,0,0,1-3.68,2.2H735.72V77.19c0,1.89.39,3.21,1.16,3.94S739,82.22,741,82.22h5.55q4.38,0,6.45,2.65a9.11,9.11,0,0,1,0,11.54Q750.94,99,746.56,99Z" fill="#062d73" stroke="#fff" stroke-width="5"/>
    <path id="y" d="M768.1,127a13.68,13.68,0,0,1-6.51-1.41q-2.65-1.42-2.65-7.1a14.09,14.09,0,0,1,1.1-5.8,3.85,3.85,0,0,1,3.8-2.45,45.32,45.32,0,0,0,4.78-.33,19.55,19.55,0,0,0,6.13-1.8,12.5,12.5,0,0,0,5.28-4.91c1.42-2.28,2.13-5.43,2.13-9.48L759.59,48.81a5.73,5.73,0,0,1-.65-2.58,6.52,6.52,0,0,1,2.32-4.77A17.61,17.61,0,0,1,766.75,38a15.33,15.33,0,0,1,5.74-1.29,8,8,0,0,1,3.35.7A4.19,4.19,0,0,1,778,39.91l14.58,35,10.71-35a4.23,4.23,0,0,1,2.13-2.52,7,7,0,0,1,3-.7A15.26,15.26,0,0,1,814.09,38a19.83,19.83,0,0,1,5.74,3.55,6.61,6.61,0,0,1,2.45,5,4.38,4.38,0,0,1-.51,2.19L803.45,94.48q-2.46,6.06-4.65,11.87a43.09,43.09,0,0,1-5.61,10.44,23.9,23.9,0,0,1-9.35,7.42Q777.9,127,768.1,127Z" fill="#191331" stroke="#fff" stroke-width="5"/>
    <path id="l-2" data-name="l" d="M841.37,99a12.26,12.26,0,0,1-7.16-1.93q-2.78-1.94-2.77-4.26V8.56a5,5,0,0,1,2.77-4.38,13.67,13.67,0,0,1,7.16-1.68,14.21,14.21,0,0,1,7.1,1.68q3,1.68,3,4.38V92.8q0,2.33-3,4.26A12.72,12.72,0,0,1,841.37,99Z" fill="#252947" stroke="#fff" stroke-width="5"/>
    <path id="e-3" data-name="e" d="M896.2,100.28a39.63,39.63,0,0,1-16.9-3.42,27.52,27.52,0,0,1-11.55-9.61,25,25,0,0,1-4.19-14.32V63.52a23.61,23.61,0,0,1,4-13.29,29.59,29.59,0,0,1,10.7-9.74A32.15,32.15,0,0,1,907,39.91a26.51,26.51,0,0,1,10.12,8.58A21.68,21.68,0,0,1,921,61.32c0,3.87-.62,6.65-1.87,8.32a7.7,7.7,0,0,1-4.77,3.1,29.66,29.66,0,0,1-5.87.58h-24.9v.78a9.35,9.35,0,0,0,3.62,7.67q3.6,2.91,9.54,2.9a17.14,17.14,0,0,0,6.84-1.22q2.84-1.23,5-2.39a9.12,9.12,0,0,1,4.26-1.16,5.68,5.68,0,0,1,4,1.55,10,10,0,0,1,2.52,3.61,9.83,9.83,0,0,1,.84,3.61q0,2.46-3,5.16a23.8,23.8,0,0,1-8.32,4.58A38.5,38.5,0,0,1,896.2,100.28ZM883.55,62.1h16a2.83,2.83,0,0,0,2.06-.65,3.48,3.48,0,0,0,.65-2.45,6.78,6.78,0,0,0-1.36-4.32,8,8,0,0,0-3.48-2.58,12.38,12.38,0,0,0-4.58-.84,12,12,0,0,0-4.45.84,8,8,0,0,0-3.48,2.58A6.78,6.78,0,0,0,883.55,59Z" fill="#116f51" stroke="#fff" stroke-width="5"/>
    <path id="t-2" data-name="t" d="M988.17,99a15.36,15.36,0,0,1-6.9-1.55,5,5,0,0,1-3.16-4.64v-70h-17.8A4.93,4.93,0,0,1,955.86,20a12.44,12.44,0,0,1-1.62-6.39,13.33,13.33,0,0,1,1.42-6.06,4.84,4.84,0,0,1,4.65-2.84H1016a4.84,4.84,0,0,1,4.65,2.84,13.46,13.46,0,0,1,1.42,6.06,12.92,12.92,0,0,1-1.55,6.39,4.9,4.9,0,0,1-4.52,2.77h-17.8V92.8a5,5,0,0,1-3.16,4.64A15.39,15.39,0,0,1,988.17,99Z" fill="#26bb83" stroke="#fff" stroke-width="5"/>
    <path id="h" d="M1040.67,99a12.26,12.26,0,0,1-7.16-1.93q-2.77-1.94-2.77-4.26V8.56a5,5,0,0,1,2.77-4.38,13.67,13.67,0,0,1,7.16-1.68,14.21,14.21,0,0,1,7.1,1.68q3,1.68,3,4.38V46.62a18.47,18.47,0,0,1,5.94-6.77,16.52,16.52,0,0,1,10.06-3,17.94,17.94,0,0,1,10.9,3.68,26.64,26.64,0,0,1,8,9.8,30.32,30.32,0,0,1,3,13.61V92.8a5,5,0,0,1-3.16,4.64,15.39,15.39,0,0,1-6.9,1.55,15.23,15.23,0,0,1-6.71-1.55,5,5,0,0,1-3.22-4.64V63.9a9.1,9.1,0,0,0-1.29-4.64,11.38,11.38,0,0,0-3.36-3.61,8,8,0,0,0-4.64-1.42,8.08,8.08,0,0,0-4.07,1.16,9.26,9.26,0,0,0-3.29,3.29,9.9,9.9,0,0,0-1.29,5.22V92.8q0,2.33-3,4.26A12.72,12.72,0,0,1,1040.67,99Z" fill="#a7d16f" stroke="#fff" stroke-width="5"/>
    <path id="e-4" data-name="e" d="M1131.62,100.28a39.63,39.63,0,0,1-16.9-3.42,27.52,27.52,0,0,1-11.55-9.61A25,25,0,0,1,1099,72.93V63.52a23.61,23.61,0,0,1,4-13.29,29.59,29.59,0,0,1,10.7-9.74,32.15,32.15,0,0,1,28.71-.58,26.51,26.51,0,0,1,10.12,8.58,21.68,21.68,0,0,1,3.87,12.83c0,3.87-.62,6.65-1.87,8.32a7.7,7.7,0,0,1-4.77,3.1,29.66,29.66,0,0,1-5.87.58H1119v.78a9.37,9.37,0,0,0,3.61,7.67q3.62,2.91,9.55,2.9a17.14,17.14,0,0,0,6.84-1.22q2.83-1.23,5-2.39a9.12,9.12,0,0,1,4.26-1.16,5.68,5.68,0,0,1,4,1.55,10,10,0,0,1,2.52,3.61,9.83,9.83,0,0,1,.84,3.61q0,2.46-3,5.16a23.8,23.8,0,0,1-8.32,4.58A38.5,38.5,0,0,1,1131.62,100.28ZM1119,62.1h16a2.83,2.83,0,0,0,2.06-.65,3.48,3.48,0,0,0,.65-2.45,6.78,6.78,0,0,0-1.36-4.32,8,8,0,0,0-3.48-2.58,12.38,12.38,0,0,0-4.58-.84,12,12,0,0,0-4.45.84,8,8,0,0,0-3.48,2.58A6.78,6.78,0,0,0,1119,59Z" fill="#f3b85b" stroke="#fff" stroke-width="5"/>
    <path id="m-2" data-name="m" d="M1176.89,99a12.26,12.26,0,0,1-7.16-1.93Q1167,95.13,1167,92.8V43.65a5,5,0,0,1,2.77-4.38,13.67,13.67,0,0,1,7.16-1.68,11.09,11.09,0,0,1,6.19,1.68,5,5,0,0,1,2.58,4.38v3a22.35,22.35,0,0,1,6.45-6.77,17.8,17.8,0,0,1,10.58-3,13.43,13.43,0,0,1,9.29,3.62,21.64,21.64,0,0,1,5.93,9.28,23.5,23.5,0,0,1,8.58-9.74,20.65,20.65,0,0,1,10.77-3.16A22.15,22.15,0,0,1,1248.68,40a23.83,23.83,0,0,1,8.71,9.23,30,30,0,0,1,3.35,14.7V92.8q0,2.33-3,4.26a12.72,12.72,0,0,1-7.1,1.93,12.47,12.47,0,0,1-7-1.93q-3-1.94-3-4.26V63.9a10.93,10.93,0,0,0-1.23-5.41,8.17,8.17,0,0,0-3.22-3.29,8.64,8.64,0,0,0-4.2-1.1,7.69,7.69,0,0,0-3.93,1.1,8.59,8.59,0,0,0-3.1,3.22,11,11,0,0,0-1.22,5.48v29a4.8,4.8,0,0,1-3.16,4.64,16.61,16.61,0,0,1-6.9,1.42,16.4,16.4,0,0,1-6.71-1.42,4.8,4.8,0,0,1-3.23-4.64V64a10.49,10.49,0,0,0-1.29-5.41,8.6,8.6,0,0,0-7.48-4.39,8,8,0,0,0-3.93,1,7.65,7.65,0,0,0-3,3.16A11.33,11.33,0,0,0,1187,63.9V92.8q0,2.33-3,4.26A12.72,12.72,0,0,1,1176.89,99Z" fill="#e56a41" stroke="#fff" stroke-width="5"/>
    <path id="e-5" data-name="e" d="M1303.83,100.28a39.63,39.63,0,0,1-16.9-3.42,27.65,27.65,0,0,1-11.55-9.61,25,25,0,0,1-4.19-14.32V63.52a23.61,23.61,0,0,1,4-13.29,29.54,29.54,0,0,1,10.71-9.74,32.13,32.13,0,0,1,28.7-.58,26.44,26.44,0,0,1,10.12,8.58,21.68,21.68,0,0,1,3.87,12.83c0,3.87-.62,6.65-1.87,8.32a7.65,7.65,0,0,1-4.77,3.1,29.58,29.58,0,0,1-5.87.58h-24.9v.78a9.35,9.35,0,0,0,3.62,7.67c2.4,1.94,5.59,2.9,9.54,2.9a17.14,17.14,0,0,0,6.84-1.22q2.83-1.23,5-2.39a9.12,9.12,0,0,1,4.26-1.16,5.71,5.71,0,0,1,4,1.55,10.1,10.1,0,0,1,2.51,3.61,9.83,9.83,0,0,1,.84,3.61q0,2.46-3,5.16a23.71,23.71,0,0,1-8.32,4.58A38.5,38.5,0,0,1,1303.83,100.28ZM1291.18,62.1h16a2.85,2.85,0,0,0,2.07-.65,3.53,3.53,0,0,0,.64-2.45,6.84,6.84,0,0,0-1.35-4.32,8.14,8.14,0,0,0-3.49-2.58,12.35,12.35,0,0,0-4.58-.84,12,12,0,0,0-4.45.84,8,8,0,0,0-3.48,2.58,6.84,6.84,0,0,0-1.36,4.32Z" fill="#e31649" stroke="#fff" stroke-width="5"/>
  </g>
</svg>
