<svg xmlns="http://www.w3.org/2000/svg" width="169.52mm" height="169.5mm" viewBox="0 0 480.54 480.48"><g id="background"><path id="Blue_Half_Circle" data-name="Blue Half Circle" d="M71.49,409.39l337.9-337.9A238.19,238.19,0,0,0,239,0C107,0,0,107,0,239A238.19,238.19,0,0,0,71.49,409.39Z" fill="#aae2ff"/><path id="Grey_Half_Circle" data-name="Grey Half Circle" d="M409.05,71.09,71.15,409a238.19,238.19,0,0,0,170.43,71.49c132,0,239-107,239-239A238.19,238.19,0,0,0,409.05,71.09Z" fill="gray"/></g><g id="sunLightning"><circle cx="154.21" cy="159.45" r="92.02" fill="#ffd517"/><polyline points="222.27 333.55 259.7 333.55 242.25 371.93 278.1 371.93 213.71 436.31 236.33 385.99 206.52 385.99 222.27 333.55" fill="#ffd517"/></g><g id="cloud"><path id="Cloud-2" data-name="Cloud" d="M126.17,333.55c-60.21.27-94.84-101.18-11.74-133.22-.32-28.86,31.72-62.17,73.27-43.45,23.15-60.27,122.43-72.64,149.07,7.93,97.06,12.37,101.82,150.34,5.08,168.74Z" fill="#fff"/></g><g id="raindrop"><path d="M180.66,378.78a15.24,15.24,0,0,1-30.48,0c0-10.45,6.54-22.65,15.24-32.12C173.84,356.37,180.66,367.38,180.66,378.78Zm136.11-32.12c-8.7,9.47-15.24,21.67-15.24,32.12a15.25,15.25,0,0,0,30.49,0C332,367.38,325.19,356.37,316.77,346.66Z" fill="#00d0f4"/></g></svg>