<svg xmlns="http://www.w3.org/2000/svg" width="169.52mm" height="169.5mm" viewBox="0 0 480.54 480.48"><g id="background"><path d="M409.05,71.09l0,0A238.2,238.2,0,0,0,239,0C107,0,0,107,0,239A238.19,238.19,0,0,0,71.49,409.39l0,0a238.2,238.2,0,0,0,170.06,71.12c132,0,239-107,239-239A238.19,238.19,0,0,0,409.05,71.09Z"/></g><g id="camera"><path d="M300.42,240.24a60.15,60.15,0,1,1-60.15-60.15A60.15,60.15,0,0,1,300.42,240.24ZM394,160.05V320.44a40.1,40.1,0,0,1-40.1,40.09H126.69a40.1,40.1,0,0,1-40.1-40.09V160.05a40.1,40.1,0,0,1,40.1-40.1H353.85A40.1,40.1,0,0,1,394,160.05Zm-73.48,80.19a80.2,80.2,0,1,0-80.2,80.2A80.2,80.2,0,0,0,320.47,240.24Zm44-87.63a7.43,7.43,0,0,0-7.43-7.43H324.9a7.44,7.44,0,0,0,0,14.87h32.19A7.44,7.44,0,0,0,364.52,152.61Zm-41-46.43H304.72l-8.06-16.12c-4.75-9.38-7.22-16.13-16.12-16.13H205.4c-8.9,0-11.85,7.69-16.12,16.13l-8.06,16.12H157" fill="#edaed5"/></g></svg>