<svg xmlns="http://www.w3.org/2000/svg" width="169.52mm" height="169.5mm" viewBox="0 0 480.54 480.48"><g id="background"><circle cx="240.27" cy="240.24" r="29.19" fill="#db4646"/></g><g id="clock"><path d="M409.05,71.09l0,0A238.2,238.2,0,0,0,239,0C107,0,0,107,0,239A238.19,238.19,0,0,0,71.49,409.39l0,0a238.2,238.2,0,0,0,170.06,71.12c132,0,239-107,239-239A238.19,238.19,0,0,0,409.05,71.09ZM241.42,450.37A208.35,208.35,0,0,1,92.67,388.16l0,0A208.35,208.35,0,0,1,30.12,239.12c0-115.43,93.57-209,209-209A208.31,208.31,0,0,1,387.86,92.32l0,0a208.35,208.35,0,0,1,62.53,149.07C450.42,356.79,356.85,450.37,241.42,450.37Z" fill="#db4646"/><path d="M400,240.24a11.91,11.91,0,0,1,11.91-11.91h8.73A178.58,178.58,0,0,0,376,121.39l-6.2,6.2a11.91,11.91,0,0,1-16.85-16.85l6.11-6.11A178.57,178.57,0,0,0,252.18,61.19V70a11.91,11.91,0,0,1-11.91,11.91h0A11.92,11.92,0,0,1,228.35,70V61.23a178.58,178.58,0,0,0-106.83,43.41l6.12,6.12a11.91,11.91,0,0,1-16.85,16.85l-6.21-6.21A178.63,178.63,0,0,0,59.94,228.33h8.73a11.91,11.91,0,1,1,0,23.82H59.94a178.55,178.55,0,0,0,44.63,106.94l6.2-6.2a11.91,11.91,0,0,1,16.85,16.85l-6.12,6.12a178.65,178.65,0,0,0,103.31,43.19v-8.57a11.92,11.92,0,0,1,23.83,0v8.95A178.73,178.73,0,0,0,359,375.84l-6.12-6.12a11.91,11.91,0,0,1,16.85-16.85l6.21,6.21A178.63,178.63,0,0,0,420.6,252.15h-8.73A11.91,11.91,0,0,1,400,240.24Zm-46.89.07a8.65,8.65,0,0,1-8.65,8.65H283.91a44.5,44.5,0,1,1-52.64-52.31V115.5a9,9,0,0,1,9-9h0a9,9,0,0,1,9,9v81.15a44.56,44.56,0,0,1,34.66,35h60.49a8.65,8.65,0,0,1,8.65,8.65Z" fill="#db4646"/></g></svg>