<svg xmlns="http://www.w3.org/2000/svg" width="169.52mm" height="169.5mm" viewBox="0 0 480.54 480.48"><g id="background"><path d="M409.05,71.09l0,0A238.2,238.2,0,0,0,239,0C107,0,0,107,0,239A238.19,238.19,0,0,0,71.49,409.39l0,0a238.2,238.2,0,0,0,170.06,71.12c132,0,239-107,239-239A238.19,238.19,0,0,0,409.05,71.09Z" fill="#edc92f"/></g><g id="note"><path d="M396.32,298.53V113.22a29,29,0,0,0-29-29h-254a29,29,0,0,0-29,29v254a29,29,0,0,0,29,29H298.56Z" fill="#fff"/><path d="M299,396.29V299h97.3ZM262.48,142.67h0a7.61,7.61,0,0,0-7.61-7.61H144.48a7.61,7.61,0,0,0-7.61,7.61h0a7.62,7.62,0,0,0,7.61,7.62H254.87A7.62,7.62,0,0,0,262.48,142.67Zm81.19,40.26h0a7.61,7.61,0,0,0-7.61-7.61H144.48a7.61,7.61,0,0,0-7.61,7.61h0a7.61,7.61,0,0,0,7.61,7.61H336.06A7.61,7.61,0,0,0,343.67,182.93Zm-40.59,40.25h0a7.61,7.61,0,0,0-7.61-7.61h-151a7.61,7.61,0,0,0-7.61,7.61h0a7.62,7.62,0,0,0,7.61,7.62h151A7.62,7.62,0,0,0,303.08,223.18Zm40.59,40.26h0a7.61,7.61,0,0,0-7.61-7.61H144.48a7.61,7.61,0,0,0-7.61,7.61h0a7.61,7.61,0,0,0,7.61,7.61H336.06A7.61,7.61,0,0,0,343.67,263.44Z" fill="#d8d8d8"/></g></svg>