<svg xmlns="http://www.w3.org/2000/svg" width="169.52mm" height="169.5mm" viewBox="0 0 480.54 480.48"><g id="background"><path d="M409.05,71.09l0,0A238.2,238.2,0,0,0,239,0C107,0,0,107,0,239A238.19,238.19,0,0,0,71.49,409.39l0,0a238.2,238.2,0,0,0,170.06,71.12c132,0,239-107,239-239A238.19,238.19,0,0,0,409.05,71.09Z" fill="#e24c3f"/></g><g id="recording"><path d="M363.32,268.17H340.88c-10.21,45-52.93,78.54-101,78.54s-90.75-33.58-101-78.54H116.51c9.9,53.84,56.8,95.47,112.18,100.47v22.94H217.47a11.22,11.22,0,0,0,0,22.44h44.88a11.22,11.22,0,0,0,0-22.44H251.13V368.64C306.52,363.64,353.42,322,363.32,268.17Z" fill="#312f38"/><path d="M262.65,414H217.18a11.34,11.34,0,0,1-11.31-11.31h0a11.35,11.35,0,0,1,11.31-11.32h45.47A11.35,11.35,0,0,1,274,402.71h0A11.34,11.34,0,0,1,262.65,414Z" fill="#754d29"/><path d="M239.91,335.71a78.52,78.52,0,0,1-78.53-78.53V145a78.53,78.53,0,0,1,157.06,0V257.18A78.52,78.52,0,0,1,239.91,335.71Z" fill="#312f38" fill-rule="evenodd"/><path d="M318.44,244H275.31c-5.76,0-10.47-4.95-10.47-11a10.78,10.78,0,0,1,10.47-11h43.13Zm0-58.11H275.31a10.78,10.78,0,0,0-10.47,11c0,6.06,4.71,11,10.47,11h43.13Zm0-36.11H275.31c-5.76,0-10.47,5-10.47,11s4.71,11,10.47,11h43.13ZM161.38,244H205a11,11,0,0,0,0-22H161.38Zm0-36.1H205a11,11,0,0,0,0-22H161.38Zm0-36.1H205a11,11,0,0,0,0-22H161.38Z"/><path d="M357.74,255.44c-6.53-1.79-14.85,2.22-16.25,9.22a82.79,82.79,0,0,1-3.05,10.6q-.84,2.43-1.77,4.81c-.24.62-.5,1.24-.74,1.86l-.18.41c-1.8,4-3.7,7.83-5.83,11.61a139.6,139.6,0,0,1-8.53,13.12,3.32,3.32,0,0,0-.35.59c-.25.25-.5.5-.63.66-.9,1.12-1.83,2.21-2.77,3.3-1.77,2-3.62,4-5.53,5.89q-3.28,3.25-6.84,6.23c-.72.6-4.53,3.45-1.4,1.17-1.2.88-2.38,1.76-3.59,2.61a119.49,119.49,0,0,1-17.13,9.63l-.43.19-1,.4c-.63.24-1.26.49-1.89.72-1.61.6-3.24,1.16-4.87,1.68q-5.39,1.73-10.91,2.92c-2,.45-4.05.83-6.09,1.18l-2.46.37-1.57.19c-4.33.46-8.66.71-13,.81-.22,0-.44,0-.66,0s-.44,0-.67,0c-4.34-.1-8.68-.35-13-.81l-1.57-.19-2.46-.37c-2-.35-4.07-.73-6.09-1.18q-5.52-1.2-10.91-2.92c-1.63-.52-3.26-1.08-4.87-1.68-.63-.23-1.26-.48-1.89-.72l-1-.4-.43-.19a119.49,119.49,0,0,1-17.13-9.63c-1.21-.85-2.39-1.73-3.59-2.61,3.13,2.28-.68-.57-1.41-1.17q-3.54-3-6.83-6.23c-1.92-1.9-3.76-3.87-5.53-5.89-1-1.09-1.87-2.18-2.77-3.3-.13-.16-.39-.41-.63-.66a4.07,4.07,0,0,0-.35-.59A139.6,139.6,0,0,1,150.62,294c-2.13-3.78-4-7.66-5.83-11.61l-.18-.41c-.25-.62-.5-1.24-.74-1.86q-.94-2.38-1.77-4.81a82.79,82.79,0,0,1-3-10.6c-1.4-7-9.73-11-16.25-9.22-7.29,2-10.63,9.23-9.22,16.24,2.35,11.76,7.57,23.42,13.27,33.87,12.3,22.55,31.27,42,54.55,53.18,18.27,8.76,38,12.84,58.2,13.29.23,0,.45,0,.67,0s.44,0,.66,0c20.22-.45,39.94-4.53,58.21-13.29,23.28-11.17,42.25-30.63,54.55-53.18,5.7-10.45,10.92-22.11,13.27-33.87C368.36,264.67,365,257.44,357.74,255.44Z" fill="#a87c50"/></g></svg>