<svg xmlns="http://www.w3.org/2000/svg" width="169.52mm" height="169.5mm" viewBox="0 0 480.54 480.48"><g id="background"><path d="M409.05,71.09l0,0A238.2,238.2,0,0,0,239,0C107,0,0,107,0,239A238.19,238.19,0,0,0,71.49,409.39l0,0a238.2,238.2,0,0,0,170.06,71.12c132,0,239-107,239-239A238.19,238.19,0,0,0,409.05,71.09Z" fill="#00aa91"/></g><g id="store"><g id="Store-2" data-name="Store"><path d="M345.71,384.91H133.17c-28.6,0-52-13.2-52-41.8V216.25a52.14,52.14,0,0,1,52-52H345.71a52.14,52.14,0,0,1,52,52V343.11C397.71,371.71,374.31,384.91,345.71,384.91Z" fill="#f1f1f1"/><path d="M74.75,333.15v26.6a34.69,34.69,0,0,0,34.59,34.6H369.79a34.7,34.7,0,0,0,34.6-34.6v-26.6Z" fill="#d1d2d3"/><polygon points="404.38 333.15 74.75 333.15 80.97 321.45 398.16 321.45 404.38 333.15" fill="#a6a8ac"/><path d="M156.55,206.19v0c0,23.68-18.81,42.88-42,42.88s-42-19.2-42-42.88v0Zm84.47,0v0c0,23.68,18.82,42.88,42,42.88s42-19.2,42-42.88v0Z" fill="#dbdbdb"/><path d="M240.81,206.19v0c0,23.68-18.81,42.88-42,42.88s-42-19.2-42-42.88v0Zm83.19,0v0c0,23.68,18.81,42.88,42,42.88s42-19.2,42-42.88v0Z" fill="#f06571"/><path d="M156.77,206.23H72.27l6.51-42h78Zm168.52-42h-84.5v42h84.5Z" fill="#fff"/><path d="M401.53,164.26H78.78s41.29-71.33,54.48-78.88c12.58-7.21,197.59-6.81,213.44,0C361.8,91.86,401.53,164.26,401.53,164.26Zm.23,0h-78v42h84.5Zm-161,0h-84.5v42h84.5Z" fill="#ff7276"/></g></g></svg>